<?xml version="1.0" encoding="UTF-8"?>
<svg width="20px" height="16px" viewBox="0 0 20 16" version="1.1" xmlns="http://www.w3.org/2000/svg" xmlns:xlink="http://www.w3.org/1999/xlink">
    <!-- Generator: Sketch 52.1 (67048) - http://www.bohemiancoding.com/sketch -->
    <title>icon_Angle of the</title>
    <desc>Created with Sketch.</desc>
    <g id="icon_Angle-of-the" stroke="none" stroke-width="1" fill="none" fill-rule="evenodd">
        <g id="Path">
            <path d="M8.73735632,15.5764706 L16.1028736,8.03764706 C16.1511494,7.98823529 16.1511494,7.90823529 16.1028736,7.85882353 L8.89367816,0.48 C8.2683908,-0.16 7.25689655,-0.16 6.6316092,0.48 L0.470689655,6.78588235 C-0.156896552,7.42823529 -0.156896552,8.46588235 0.470689655,9.10823529 L6.78793103,15.5741176 C7.32816092,16.1270588 8.19942529,16.1270588 8.73735632,15.5764706 Z" fill="#348DF2"></path>
            <path d="M15.1655172,9.02823529 C15.7425287,8.43764706 15.7425287,7.47764706 15.1655172,6.88705882 L12.1816092,3.83294118 L13.3333333,2.65411765 C13.9103448,2.06352941 14.8482759,2.06352941 15.4252874,2.65411765 L19.5609195,6.88705882 C20.137931,7.47764706 20.137931,8.43764706 19.5609195,9.02823529 L15.4252874,13.2611765 C14.8482759,13.8517647 13.9103448,13.8517647 13.3333333,13.2611765 L12.1816092,12.0823529 L15.1655172,9.02823529 Z" fill="#A1C8F1"></path>
            <path d="M12.137931,12.04 L15.3356322,8.76705882 C15.7724138,8.32 15.7724138,7.59764706 15.3356322,7.15058824 L12.137931,3.87764706 L8.85517241,7.23764706 C8.46666667,7.63529412 8.46666667,8.28 8.85517241,8.67764706 L12.137931,12.04 Z" fill="#4B9EF6"></path>
        </g>
    </g>
</svg>