<?xml version="1.0" encoding="UTF-8"?>
<svg width="18px" height="16px" viewBox="0 0 18 16" version="1.1" xmlns="http://www.w3.org/2000/svg" xmlns:xlink="http://www.w3.org/1999/xlink">
    <!-- Generator: Sketch 52.1 (67048) - http://www.bohemiancoding.com/sketch -->
    <title>icon_search</title>
    <desc>Created with Sketch.</desc>
    <g id="icon_search" stroke="none" stroke-width="1" fill="none" fill-rule="evenodd">
        <g transform="translate(0.131313, 0.000000)" fill="#9BA0BC" fill-rule="nonzero" id="Shape">
            <path d="M15.813064,14.64 L12.8430976,11.68 C13.80633,10.48 14.4484848,8.88 14.4484848,7.2 C14.4484848,3.2 11.2377104,0 7.22424242,0 C3.21077441,0 0,3.2 0,7.2 C0,11.2 3.21077441,14.4 7.22424242,14.4 C8.90989899,14.4 10.5152862,13.84 11.7193266,12.8 L14.6892929,15.76 C14.8498316,15.92 15.0906397,16 15.2511785,16 C15.4117172,16 15.6525253,15.92 15.813064,15.76 C16.1341414,15.44 16.1341414,14.96 15.813064,14.64 Z M7.22424242,12.8 C4.09373737,12.8 1.60538721,10.32 1.60538721,7.2 C1.60538721,4.08 4.09373737,1.6 7.22424242,1.6 C10.3547475,1.6 12.8430976,4.08 12.8430976,7.2 C12.8430976,10.32 10.3547475,12.8 7.22424242,12.8 Z"></path>
        </g>
    </g>
</svg>